<svg width="594" height="461" viewBox="0 0 594 461" fill="none" xmlns="http://www.w3.org/2000/svg">
<path d="M168.261 199.404C169.098 200.52 168.819 202.195 167.703 203.312C151.234 215.873 135.881 223.13 121.925 226.759C119.692 230.388 117.459 234.016 115.226 237.366C104.619 254.672 93.1742 268.908 82.5671 279.236C70.5644 290.401 59.9573 296.263 50.746 296.263C42.9302 296.263 37.0685 292.913 32.8815 286.493C29.2527 280.911 27.2988 272.816 27.0197 262.488C26.4614 246.577 29.811 225.921 35.9519 203.591C31.4858 199.125 27.2988 194.379 23.6701 189.076C15.017 176.236 9.99256 162 9.99256 149.439C9.99256 128.783 24.2283 106.732 49.0712 88.588C68.6105 74.3522 90.662 65.6991 110.201 63.7452C127.228 46.1598 143.976 36.111 159.608 34.9945C161.003 34.9945 162.399 36.111 162.678 37.5067C162.678 39.1815 161.562 40.298 159.887 40.5772C147.047 41.4146 133.09 48.9511 118.296 63.1869C124.995 63.1869 131.136 64.0243 136.719 65.6991C147.605 69.3278 154.863 77.1436 158.491 88.8671C161.841 99.1951 162.12 112.593 159.608 128.504C155.421 155.301 142.581 189.076 125.554 220.06C137.556 216.152 150.676 209.732 164.353 198.846C165.47 198.008 167.144 198.287 168.261 199.404ZM15.5752 149.439C15.5752 165.629 24.2283 183.493 37.9058 197.45C44.8842 174.003 55.2121 148.881 67.7731 125.154C79.4966 102.824 92.0576 84.401 104.619 69.8861C87.5915 72.9566 68.8896 80.7723 52.4208 93.0541C29.2527 109.802 15.5752 131.016 15.5752 149.439ZM110.76 234.575C111.876 232.621 113.272 230.388 114.667 228.154C90.9411 232.341 71.9601 226.48 60.5156 220.618C53.2582 217.268 46.559 212.802 40.6972 207.778C34.8354 228.434 31.7649 247.415 32.3232 262.209C33.1606 281.19 39.3015 290.68 50.746 290.68C65.8191 290.68 88.708 269.187 110.76 234.575ZM118.296 222.014C136.44 190.472 149.838 155.301 154.304 127.667C157.654 105.894 157.096 78.2601 135.044 71.0026C128.624 68.7696 121.087 68.2113 112.993 68.7696C99.036 83.5636 85.0793 103.94 72.5183 127.667C59.6782 151.951 49.3503 177.911 42.372 201.637C48.5129 207.219 55.2121 212.244 62.7487 215.873C74.4723 221.455 94.0116 227.596 118.296 222.014ZM283.711 214.198C284.827 215.035 284.827 216.71 283.99 217.827C261.38 243.228 244.353 255.789 232.35 255.789C230.675 255.789 229.28 255.509 227.884 255.23C216.161 251.602 213.927 234.854 212.532 223.967C212.253 221.455 211.974 218.106 211.415 216.989C210.299 216.71 205.833 216.71 192.434 228.154C182.665 236.528 171.778 247.973 162.288 258.022C161.73 258.58 160.892 258.859 160.334 258.859C160.334 258.859 160.334 258.859 160.055 258.859C159.497 258.859 158.938 258.58 158.38 258.022C154.193 254.114 155.589 243.786 157.264 235.97C159.776 225.363 164.242 213.64 169.545 203.87C170.104 202.753 171.778 202.195 173.174 202.753C174.57 203.591 174.849 205.266 174.291 206.661C169.266 215.873 165.079 227.038 162.567 237.087C161.171 243.786 160.892 248.252 161.171 251.043C170.104 241.832 180.152 231.504 188.806 223.967C201.925 212.802 209.74 209.453 214.765 212.523C216.719 213.919 217.277 216.989 218.114 223.409C219.231 232.9 220.906 247.415 229.28 249.927C235.979 252.16 250.215 247.415 279.803 214.198C280.919 213.081 282.594 213.081 283.711 214.198ZM348.494 213.919C349.889 214.477 350.447 216.152 349.61 217.547C346.26 223.967 337.607 237.366 326.442 248.531C315.277 259.696 304.949 265.558 296.017 265.558C293.783 265.558 291.83 265.279 289.876 264.442C278.989 260.813 274.523 246.298 277.873 225.084C281.222 203.591 291.55 173.165 305.507 143.856C316.114 121.805 330.908 96.962 340.12 93.6124C343.19 92.2167 345.144 93.3333 345.981 94.1707C346.819 95.0081 347.377 96.1246 347.656 97.5203C348.494 106.732 332.025 138.832 322.255 156.976C307.74 183.772 291.83 209.453 284.572 218.106C284.014 220.618 283.456 223.409 283.176 225.921C280.385 244.065 283.456 256.626 291.55 259.417C309.694 265.837 337.049 230.108 344.865 215.035C345.423 213.64 347.098 213.081 348.494 213.919ZM340.399 99.4742C327.838 108.406 300.483 160.604 288.201 203.87C296.296 191.588 307.74 172.328 318.347 152.789C337.607 117.06 342.353 101.986 342.353 98.3577C341.794 98.6368 341.236 98.9159 340.399 99.4742ZM527.795 213.919C528.911 215.035 528.911 216.71 527.795 217.827C501.836 247.135 484.25 259.138 472.527 255.509C461.92 252.439 459.687 237.924 458.012 227.317C457.453 223.409 456.616 218.106 455.779 216.989C454.941 216.71 451.033 215.593 436.519 228.154C426.749 236.249 415.584 247.694 406.093 258.022C405.535 258.58 404.976 258.859 404.139 258.859C403.581 258.859 402.743 258.58 402.185 258.022C399.115 254.951 401.627 248.81 406.372 237.366C408.047 232.9 410.001 228.434 411.117 224.805C412.234 221.734 412.234 220.06 412.234 219.222C409.722 221.176 404.976 226.48 401.069 230.667C388.229 245.182 370.643 264.721 356.128 264.721C355.012 264.721 353.895 264.721 352.779 264.442C346.917 263.046 342.73 259.696 340.497 254.114C334.356 239.599 344.126 215.035 350.266 205.545C351.104 204.428 352.779 204.149 354.174 204.986C355.291 205.824 355.57 207.499 354.733 208.615C348.871 217.547 340.497 240.157 345.521 252.16C346.917 255.789 349.708 258.301 353.895 259.138C354.733 259.138 355.291 259.417 356.128 259.417C368.41 259.417 385.437 240.157 397.161 227.038C400.79 223.13 404.139 219.501 406.651 216.989C408.605 215.035 412.234 211.686 415.025 213.64C420.608 217.268 416.421 227.596 411.397 239.599C410.28 242.111 408.884 245.461 407.768 248.252C433.169 222.014 450.475 207.219 458.849 212.523C461.64 214.477 462.199 219.222 463.594 226.201C464.99 235.691 466.944 248.252 474.201 250.485C480.622 252.16 494.299 247.415 523.887 214.198C524.725 213.081 526.678 213.081 527.795 213.919ZM353.895 191.309C353.895 191.03 353.895 191.03 353.895 191.03C353.337 190.192 353.616 189.076 354.174 188.518C354.453 186.005 355.291 183.493 357.245 181.539C358.361 180.702 360.315 179.585 363.107 180.144C365.06 180.423 368.968 180.981 369.247 184.051C369.527 187.122 366.735 188.797 359.478 191.867C359.478 191.867 359.478 191.867 359.478 192.146C359.478 193.542 358.361 194.938 356.687 194.938C355.291 194.938 353.895 193.821 353.895 192.425C353.895 192.146 353.895 191.867 353.895 191.309ZM592.449 213.919C593.845 215.035 593.845 216.71 593.007 217.827C589.1 222.851 576.818 237.924 563.14 249.369C550.579 259.696 539.135 265 529.365 265C527.411 265 525.178 264.721 523.224 264.442C512.896 261.65 508.151 252.718 510.384 240.157C512.059 231.504 516.804 222.014 523.224 215.035C530.482 206.94 538.856 203.032 546.392 203.87C551.417 204.428 553.091 206.661 553.929 208.615C555.324 212.244 553.371 216.989 548.625 222.572C541.368 230.946 528.249 238.482 519.037 235.97C518.479 235.97 517.921 235.412 517.362 235.133C516.804 237.087 516.246 239.041 515.967 240.995C514.85 246.856 514.571 256.626 524.62 259.138C533.831 261.371 545.834 256.626 559.511 245.182C572.91 234.016 584.913 219.222 588.82 214.477C589.658 213.36 591.333 213.081 592.449 213.919ZM545.834 209.173C535.785 208.057 524.899 218.664 519.316 230.667H519.595H520.433C527.132 232.621 538.297 225.921 544.717 218.943C548.067 214.756 549.184 211.686 548.904 210.569C548.346 209.732 546.671 209.173 545.834 209.173Z" fill="#FFF1E8"/>
<path d="M72.7274 238.349C86.9122 238.349 98.5726 249.889 98.5726 264.194V300.978C98.5726 315.163 86.9122 326.824 72.7274 326.824H30.6537C23.8017 326.824 17.1901 324.059 12.2615 319.25C7.45305 314.322 4.68821 307.83 4.80842 300.978V264.194C4.68821 257.342 7.45305 250.731 12.2615 245.922C17.1901 241.114 23.6815 238.349 30.6537 238.349H72.7274ZM64.7935 291.602V273.571C64.7935 268.882 60.9467 265.036 56.2585 265.036H47.0023C42.3141 265.036 38.4674 268.882 38.4674 273.571V291.602C38.4674 296.29 42.3141 300.137 47.0023 300.137H56.2585C60.9467 300.137 64.7935 296.29 64.7935 291.602ZM165.572 240.753H199.231V325.021H166.173L142.852 283.788V325.021H108.232V240.753H145.257L165.572 271.407V240.753ZM241.412 292.684H298.031V325.141H208.955V240.753H241.412V292.684ZM336.623 325.021H303.926V240.753H336.623V325.021ZM403.645 240.753H437.304V325.021H404.246L380.926 283.788V325.021H346.305V240.753H383.33L403.645 271.407V240.753ZM538.148 269.604H475.758V276.456H513.144V289.438H475.758V296.29H538.148V325.141H447.028V240.753H538.148V269.604ZM72.7274 350.349C86.9122 350.349 98.5726 361.889 98.5726 376.194V412.978C98.5726 427.163 86.9122 438.824 72.7274 438.824H30.6537C23.8017 438.824 17.1901 436.059 12.2615 431.25C7.45305 426.322 4.68821 419.83 4.80842 412.978V376.194C4.68821 369.342 7.45305 362.731 12.2615 357.922C17.1901 353.114 23.6815 350.349 30.6537 350.349H72.7274ZM64.7935 403.602V385.571C64.7935 380.882 60.9467 377.036 56.2585 377.036H47.0023C42.3141 377.036 38.4674 380.882 38.4674 385.571V403.602C38.4674 408.29 42.3141 412.137 47.0023 412.137H56.2585C60.9467 412.137 64.7935 408.29 64.7935 403.602ZM179.396 396.75C196.947 401.679 195.865 436.9 195.865 436.9H160.644V408.531C160.644 403.001 153.07 403.602 153.07 403.602H138.044V436.9H108.232V352.873H162.687C179.156 352.873 195.024 359.365 195.024 375.232C195.024 391.1 179.396 396.75 179.396 396.75ZM161.124 387.253C162.326 386.172 162.687 384.368 162.086 382.806C161.365 381.363 159.922 380.401 158.36 380.401H138.044V388.456H158.36C159.321 388.456 160.403 387.975 161.124 387.253ZM268.477 352.873C275.089 352.873 281.58 355.518 286.268 360.206C290.956 364.894 293.601 371.265 293.601 377.997V411.897C293.601 418.508 290.956 424.879 286.268 429.688C281.58 434.376 275.089 437.021 268.477 437.021H203.203V352.873H268.477ZM261.144 405.525V384.248C261.144 382.084 259.341 380.401 257.297 380.401H229.889V409.372H257.297C259.461 409.372 261.144 407.689 261.144 405.525ZM393.05 381.604H330.661V388.456H368.046V401.438H330.661V408.29H393.05V437.141H301.93V352.753H393.05V381.604ZM472.644 396.75C490.195 401.679 489.113 436.9 489.113 436.9H453.891V408.531C453.891 403.001 446.318 403.602 446.318 403.602H431.292V436.9H401.48V352.873H455.935C472.404 352.873 488.272 359.365 488.272 375.232C488.272 391.1 472.644 396.75 472.644 396.75ZM454.372 387.253C455.574 386.172 455.935 384.368 455.334 382.806C454.613 381.363 453.17 380.401 451.607 380.401H431.292V388.456H451.607C452.569 388.456 453.651 387.975 454.372 387.253Z" fill="#2F4F7F"/>
</svg>
