<svg width="71" height="60" viewBox="0 0 71 60" fill="none" xmlns="http://www.w3.org/2000/svg">
<path d="M0.154053 37.3124V4.11836H4.84822V36.4887L19.1868 36.0769V37.3124H0.154053Z" fill="#002683"/>
<path d="M19.6175 30.8466C19.6175 22.6098 30.7128 22.8569 35.4497 19.3975V19.0268C35.4497 15.2791 33.2733 13.4671 30.6275 13.4671C27.7256 13.4671 24.397 15.4027 24.397 19.4799L21.7512 16.2264C22.8608 13.7965 26.7441 12.3963 30.6701 12.3963C35.3643 12.3551 40.1438 14.3731 40.1438 18.9033V37.3124L35.4497 35.2532V34.1824C33.7854 36.4475 31.737 37.7242 28.1524 37.7242C25.3359 37.7242 19.6175 37.0653 19.6175 30.8466ZM35.4497 19.727C32.7612 22.7334 24.1837 24.1748 24.3117 31.2996C24.3117 34.0589 25.7199 36.6123 29.2192 36.6123C31.609 36.5711 33.7427 35.6239 35.4497 33.6059V19.727Z" fill="#002683"/>
<path d="M48.2626 0V37.3124H43.5684V2.05918L48.2626 0Z" fill="#002683"/>
<path d="M50.4146 30.8466C50.4146 22.6098 61.51 22.8569 66.2468 19.3975V19.0268C66.2468 15.2791 64.0704 13.4671 61.4246 13.4671C58.5228 13.4671 55.1942 15.4027 55.1942 19.4799L52.5484 16.2264C53.6579 13.7965 57.5412 12.3963 61.4673 12.3963C66.1614 12.3551 70.941 14.3731 70.941 18.9033V37.3124L66.2468 35.2532V34.1824C64.5825 36.4475 62.5341 37.7242 58.9495 37.7242C56.133 37.7242 50.4146 37.0653 50.4146 30.8466ZM66.2468 19.727C63.5583 22.7334 54.9808 24.1748 55.1088 31.2996C55.1088 34.0589 56.5171 36.6123 60.0164 36.6123C62.4061 36.5711 64.5398 35.6239 66.2468 33.6059V19.727Z" fill="#002683"/>
<path d="M12.9141 53.5614L13.038 53.6126C11.87 55.3546 9.87031 56.5672 7.07424 56.5672C-2.35808 56.5672 -2.35808 42.4603 7.07424 42.4603C9.9588 42.4603 11.9408 43.5875 12.9318 45.5686L11.8877 46.747C10.9498 44.8342 9.83492 42.8019 7.07424 42.8019C0.473386 42.8019 -0.0398172 55.9353 7.92368 55.9865C9.79953 56.0036 11.7108 55.3034 12.9141 53.5614Z" fill="#E5713A"/>
<path d="M13.5709 53.7151C13.5709 50.2994 18.172 50.4018 20.1363 48.9672V48.8135C20.1363 47.2594 19.2338 46.5079 18.1366 46.5079C16.9332 46.5079 15.5529 47.3106 15.5529 49.0014L14.4557 47.6522C14.9158 46.6446 16.5262 46.0639 18.1543 46.0639C20.1009 46.0468 22.0829 46.8837 22.0829 48.7623V56.3964L20.1363 55.5425V55.0984C19.4461 56.0378 18.5967 56.5672 17.1102 56.5672C15.9422 56.5672 13.5709 56.2939 13.5709 53.7151ZM20.1363 49.1039C19.0214 50.3506 15.4644 50.9484 15.5175 53.9029C15.5175 55.0472 16.1015 56.1061 17.5526 56.1061C18.5436 56.089 19.4284 55.6962 20.1363 54.8593V49.1039Z" fill="#E5713A"/>
<path d="M25.8037 42.9898C25.8037 44.2365 25.432 45.8248 23.6447 46.2176H28.6174V46.5592H25.4497V54.0225C25.4497 55.3375 26.4938 55.5083 27.0424 55.5083C27.5202 55.5083 28.529 55.3375 29.1483 54.6373L29.1837 54.6715C28.7236 55.6962 28.0158 56.5672 26.4761 56.5672C24.6711 56.5672 23.5031 55.5425 23.5031 53.7663V46.5592H22.7952V46.2176C23.5739 46.2176 23.857 45.654 23.857 43.8437L25.8037 42.9898Z" fill="#E5713A"/>
<path d="M37.6745 49.343H31.233C30.4366 52.1951 31.5161 56.1573 34.8077 56.1061C36.0287 56.089 37.2852 55.4912 38.0285 54.1933H38.117C37.3206 55.6962 36.1349 56.5672 34.2237 56.5672C27.3043 56.5672 27.2866 46.0639 34.2237 46.0639C35.7279 46.0639 37.9931 46.7641 37.9931 48.9672C37.9754 49.138 37.9223 49.343 37.6745 49.343ZM31.3391 49.0014H34.2414C36.4004 49.0014 36.4004 46.5079 34.2414 46.5079C32.808 46.5079 31.8169 47.5839 31.3391 49.0014Z" fill="#E5713A"/>
<path d="M38.9186 47.0715L40.8652 46.2176V49.0014C41.2545 47.4985 42.1924 46.0981 44.0152 46.0639C45.0416 46.0468 46.0326 46.5763 46.5458 47.6864L45.4309 49.0356C45.4309 47.9425 44.8469 46.73 43.5197 46.73C41.927 46.73 41.1483 48.3866 40.8652 49.6333V56.3964H38.9186V47.0715Z" fill="#E5713A"/>
<path d="M47.2484 44.1511C47.2484 43.5875 47.6378 43.1947 48.2394 43.1947C48.8234 43.1947 49.1951 43.5875 49.1951 44.1511C49.1951 44.7318 48.8234 45.1246 48.2394 45.1246C47.6378 45.1246 47.2484 44.7318 47.2484 44.1511ZM49.1951 46.2176V56.3964H47.2484V47.0715L49.1951 46.2176Z" fill="#E5713A"/>
<path d="M55.1487 46.5079C54.1577 46.525 53.2552 46.9178 52.565 47.7376V56.3964H50.6184V47.0715L52.565 46.2176V47.5156C53.2729 46.5763 54.2285 46.0468 55.715 46.0468C57.3785 46.0468 59.0951 46.8154 59.0951 48.5915V56.3964H57.1485V48.8135C57.1485 47.2594 56.3167 46.4909 55.1487 46.5079Z" fill="#E5713A"/>
<path d="M70.6792 57.0283V59.6755C69.759 59.8804 68.6795 60 67.4053 60C58.2739 60 59.0879 54.6373 61.8486 55.013C58.5216 52.4513 59.6365 46.0639 65.1756 46.0639C66.2551 46.0639 67.1753 46.3201 67.9185 46.73C68.3787 46.4567 68.5556 45.859 68.5556 44.4244L70.5023 43.5704C70.5023 44.8684 70.0952 46.5592 68.1132 46.8495C71.9003 49.1893 70.9093 56.0548 65.1756 56.0548C63.9722 56.0548 62.9635 55.7645 62.1848 55.2521C61.0522 55.645 61.7778 58.2921 67.4053 58.2921C68.7326 58.2921 69.9006 58.0872 70.6792 57.0283ZM65.1756 46.4055C60.8399 46.4055 60.8576 55.7133 65.1756 55.7133C69.4759 55.7133 69.4936 46.4055 65.1756 46.4055Z" fill="#E5713A"/>
</svg>
