<svg width="863" height="463" viewBox="0 0 863 463" fill="none" xmlns="http://www.w3.org/2000/svg">
<path d="M150.466 -3.05176e-05H251.942L141.759 279.936H328.925V381.413H48.9888H0L150.466 -3.05176e-05Z" fill="#EF6C6C"/>
<path d="M495.137 281.686H692.841L732.207 381.413H348.17V263.314H169.711L272.938 -3.05176e-05H383.162L495.137 281.686ZM304.43 94.4785L265.939 190.706H346.421V94.4785H304.43Z" fill="#EF6C6C"/>
<path d="M862.552 381.412H750.578L705.089 264.189H504.759L608.861 -3.05176e-05H712.087L862.552 381.412ZM610.61 190.706H687.592L649.101 94.4785L610.61 190.706Z" fill="#EF6C6C"/>
<g clip-path="url(#clip0_16_440)">
<path d="M58.967 411.621L54.2102 415.27C51.5858 411.853 48.4284 409.269 44.7378 407.52C41.0746 405.743 37.0423 404.854 32.641 404.854C27.8296 404.854 23.3736 406.016 19.2729 408.34C15.1723 410.636 11.9875 413.739 9.71848 417.648C7.4768 421.53 6.35597 425.904 6.35597 430.77C6.35597 438.124 8.87101 444.261 13.9011 449.182C18.9585 454.103 25.3282 456.563 33.01 456.563C41.4573 456.563 48.524 453.255 54.2102 446.64L58.967 450.248C55.9598 454.076 52.2009 457.042 47.6902 459.147C43.2069 461.224 38.1905 462.263 32.641 462.263C22.0887 462.263 13.7644 458.75 7.66816 451.725C2.55605 445.792 0 438.63 0 430.237C0 421.407 3.08914 413.985 9.26741 407.971C15.473 401.929 23.2369 398.909 32.5589 398.909C38.1905 398.909 43.2752 400.029 47.8133 402.271C52.3513 404.485 56.0692 407.602 58.967 411.621Z" fill="#4CB8A2"/>
<path d="M163.449 398.909L191.579 459.229H185.1L175.628 439.382H149.63L140.198 459.229H133.473L161.973 398.909H163.449ZM162.711 411.703L152.336 433.559H172.962L162.711 411.703Z" fill="#4CB8A2"/>
<path d="M266.086 404.772V398.909H299.178V404.772H285.728V459.229H279.577V404.772H266.086Z" fill="#4CB8A2"/>
<path d="M373.684 398.909H408.252V404.854H379.712V423.717H408.006V429.622H379.712V453.283H408.006V459.229H373.684V398.909Z" fill="#4CB8A2"/>
<path d="M482.759 398.909H494.773C501.471 398.909 506.009 399.182 508.387 399.729C511.969 400.549 514.88 402.312 517.122 405.018C519.363 407.698 520.484 411.005 520.484 414.942C520.484 418.222 519.705 421.107 518.147 423.594C516.616 426.082 514.415 427.968 511.545 429.253C508.674 430.511 504.711 431.153 499.653 431.18L521.345 459.229H513.882L492.231 431.18H488.786V459.229H482.759V398.909ZM488.786 404.813V425.317L499.161 425.399C503.18 425.399 506.146 425.016 508.059 424.25C510 423.485 511.504 422.268 512.57 420.601C513.664 418.906 514.21 417.02 514.21 414.942C514.21 412.919 513.664 411.087 512.57 409.447C511.477 407.78 510.041 406.59 508.264 405.88C506.487 405.169 503.535 404.813 499.407 404.813H488.786Z" fill="#4CB8A2"/>
<path d="M595.852 398.909H601.88V459.229H595.852V398.909Z" fill="#4CB8A2"/>
<path d="M676.386 459.229V398.909H677.698L717.802 445.082V398.909H723.748V459.229H722.395L682.619 413.63V459.229H676.386Z" fill="#4CB8A2"/>
<path d="M858.985 410.554L854.31 414.983C850.948 411.675 847.257 409.174 843.238 407.479C839.247 405.757 835.352 404.895 831.552 404.895C826.822 404.895 822.312 406.057 818.02 408.381C813.755 410.705 810.447 413.862 808.096 417.853C805.745 421.817 804.57 426.014 804.57 430.442C804.57 434.98 805.786 439.3 808.219 443.4C810.652 447.474 814.015 450.686 818.307 453.037C822.599 455.36 827.301 456.522 832.413 456.522C838.618 456.522 843.867 454.773 848.159 451.274C852.451 447.774 854.994 443.236 855.786 437.659H836.554V431.837H862.552C862.498 441.159 859.723 448.567 854.228 454.062C848.761 459.529 841.434 462.263 832.249 462.263C821.095 462.263 812.265 458.463 805.759 450.863C800.756 445.013 798.255 438.247 798.255 430.565C798.255 424.852 799.69 419.535 802.56 414.614C805.431 409.693 809.367 405.852 814.37 403.091C819.373 400.303 825.032 398.909 831.347 398.909C836.459 398.909 841.27 399.838 845.781 401.697C850.292 403.529 854.693 406.481 858.985 410.554Z" fill="#4CB8A2"/>
</g>
<defs>
<clipPath id="clip0_16_440">
<rect width="862.552" height="63.3546" fill="white" transform="translate(0 398.909)"/>
</clipPath>
</defs>
</svg>
