<svg width="331" height="331" viewBox="0 0 331 331" fill="none" xmlns="http://www.w3.org/2000/svg">
<g filter="url(#filter0_dddi_113_127)">
<rect x="58.7051" y="29.3535" width="212.809" height="212.809" rx="55.0368" fill="#EF6C6C"/>
</g>
<mask id="mask0_113_127" style="mask-type:alpha" maskUnits="userSpaceOnUse" x="58" y="29" width="214" height="214">
<rect x="58.7051" y="29.3535" width="212.809" height="212.809" rx="55.0368" fill="#EF6C6C"/>
</mask>
<g mask="url(#mask0_113_127)">
<path d="M86.8948 133.752H76.7367V130.681C76.7367 129.355 76.4828 128.099 76.0111 127.192C75.5032 126.284 74.8502 125.726 74.1972 125.726H71.4038C70.7145 125.726 70.0614 126.284 69.5898 127.192C69.1182 128.099 68.828 129.355 68.828 130.681V141.15C68.828 143.872 69.9889 146.036 71.4038 146.036H74.1972C75.6121 146.036 76.7367 143.872 76.7367 141.15V138.01H86.8948V146.524C86.8948 150.502 86.0966 154.341 84.6092 157.133C83.1581 159.925 81.199 161.53 79.1311 161.53H66.4699C64.402 161.53 62.4066 159.925 60.9555 157.133C59.5043 154.341 58.6699 150.502 58.7062 146.524V125.237C58.6699 121.329 59.5043 117.49 60.9555 114.699C62.4066 111.907 64.402 110.302 66.4699 110.302H79.1311C81.199 110.302 83.1581 111.907 84.6092 114.699C86.0966 117.49 86.8948 121.329 86.8948 125.237V133.752Z" fill="#FFF1E8"/>
<path d="M107.862 112.186L117.295 160.553H106.992L103.727 144.012H100.824L97.5956 160.553H87.2924L96.7249 112.186H107.862ZM100.969 136.055H103.618L102.276 129.285L100.969 136.055Z" fill="#FFF1E8"/>
<path d="M114.334 111.558H139.693V128.308H131.349V160.413H122.679V128.308H114.334V111.558Z" fill="#FFF1E8"/>
<path d="M168.86 128.308H150.031V132.286H161.314V139.824H150.031V143.802H168.86V160.553H141.361V111.558H168.86V128.308Z" fill="#FFF1E8"/>
<path d="M192.881 137.102C198.178 139.964 197.851 160.413 197.851 160.413H187.221V143.942C187.221 140.731 184.936 141.08 184.936 141.08H180.401V160.413H171.404V111.628H187.838C192.808 111.628 197.597 115.397 197.597 124.609C197.597 133.822 192.881 137.102 192.881 137.102ZM187.367 131.589C187.729 130.96 187.838 129.914 187.657 129.006C187.439 128.169 187.004 127.61 186.532 127.61H180.401V132.286H186.532C186.822 132.286 187.149 132.007 187.367 131.589Z" fill="#FFF1E8"/>
<path d="M209.933 160.483H200.066V111.558H209.933V160.483Z" fill="#FFF1E8"/>
<path d="M230.16 111.558H240.318V160.483H230.342L223.303 136.544V160.483H212.855V111.558H224.029L230.16 129.355V111.558Z" fill="#FFF1E8"/>
<path d="M271.514 131.589H261.356V130.611C261.356 127.89 260.195 125.656 258.78 125.656H255.987C255.297 125.656 254.644 126.145 254.173 127.122C253.701 128.029 253.411 129.285 253.411 130.611V141.08C253.411 143.802 254.572 146.036 255.987 146.036H258.78C259.868 146.036 260.848 144.71 261.211 142.755H258.599V134.729H271.514V147.432C271.514 151.131 270.752 154.76 269.373 157.412C267.995 159.994 266.145 161.53 264.186 161.53H251.016C246.736 161.53 243.217 154.76 243.253 146.524V125.168C243.217 121.189 244.051 117.351 245.502 114.559C246.99 111.767 248.949 110.162 251.016 110.162H263.75C265.818 110.162 267.777 111.767 269.265 114.559C270.716 117.351 271.514 121.189 271.514 125.168V131.589Z" fill="#FFF1E8"/>
</g>
<g filter="url(#filter1_i_113_127)">
<rect x="58.7051" y="29.3535" width="212.809" height="212.809" rx="55.0368" fill="#EF6C6C" fill-opacity="0.15"/>
</g>
<defs>
<filter id="filter0_dddi_113_127" x="-0.000808716" y="0.000572205" width="330.22" height="330.22" filterUnits="userSpaceOnUse" color-interpolation-filters="sRGB">
<feFlood flood-opacity="0" result="BackgroundImageFix"/>
<feColorMatrix in="SourceAlpha" type="matrix" values="0 0 0 0 0 0 0 0 0 0 0 0 0 0 0 0 0 0 127 0" result="hardAlpha"/>
<feOffset dy="29.3529"/>
<feGaussianBlur stdDeviation="29.3529"/>
<feColorMatrix type="matrix" values="0 0 0 0 0 0 0 0 0 0 0 0 0 0 0 0 0 0 0.08 0"/>
<feBlend mode="normal" in2="BackgroundImageFix" result="effect1_dropShadow_113_127"/>
<feColorMatrix in="SourceAlpha" type="matrix" values="0 0 0 0 0 0 0 0 0 0 0 0 0 0 0 0 0 0 127 0" result="hardAlpha"/>
<feOffset/>
<feGaussianBlur stdDeviation="7.33824"/>
<feColorMatrix type="matrix" values="0 0 0 0 0 0 0 0 0 0 0 0 0 0 0 0 0 0 0.04 0"/>
<feBlend mode="normal" in2="effect1_dropShadow_113_127" result="effect2_dropShadow_113_127"/>
<feColorMatrix in="SourceAlpha" type="matrix" values="0 0 0 0 0 0 0 0 0 0 0 0 0 0 0 0 0 0 127 0" result="hardAlpha"/>
<feOffset dy="14.6765"/>
<feGaussianBlur stdDeviation="7.33824"/>
<feComposite in2="hardAlpha" operator="out"/>
<feColorMatrix type="matrix" values="0 0 0 0 0 0 0 0 0 0 0 0 0 0 0 0 0 0 0.25 0"/>
<feBlend mode="normal" in2="effect2_dropShadow_113_127" result="effect3_dropShadow_113_127"/>
<feBlend mode="normal" in="SourceGraphic" in2="effect3_dropShadow_113_127" result="shape"/>
<feColorMatrix in="SourceAlpha" type="matrix" values="0 0 0 0 0 0 0 0 0 0 0 0 0 0 0 0 0 0 127 0" result="hardAlpha"/>
<feOffset/>
<feGaussianBlur stdDeviation="7.33824"/>
<feComposite in2="hardAlpha" operator="arithmetic" k2="-1" k3="1"/>
<feColorMatrix type="matrix" values="0 0 0 0 0 0 0 0 0 0 0 0 0 0 0 0 0 0 0.25 0"/>
<feBlend mode="normal" in2="shape" result="effect4_innerShadow_113_127"/>
</filter>
<filter id="filter1_i_113_127" x="58.7051" y="29.3535" width="212.809" height="212.809" filterUnits="userSpaceOnUse" color-interpolation-filters="sRGB">
<feFlood flood-opacity="0" result="BackgroundImageFix"/>
<feBlend mode="normal" in="SourceGraphic" in2="BackgroundImageFix" result="shape"/>
<feColorMatrix in="SourceAlpha" type="matrix" values="0 0 0 0 0 0 0 0 0 0 0 0 0 0 0 0 0 0 127 0" result="hardAlpha"/>
<feOffset/>
<feGaussianBlur stdDeviation="7.33824"/>
<feComposite in2="hardAlpha" operator="arithmetic" k2="-1" k3="1"/>
<feColorMatrix type="matrix" values="0 0 0 0 0 0 0 0 0 0 0 0 0 0 0 0 0 0 0.25 0"/>
<feBlend mode="normal" in2="shape" result="effect1_innerShadow_113_127"/>
</filter>
</defs>
</svg>
