<svg width="331" height="331" viewBox="0 0 331 331" fill="none" xmlns="http://www.w3.org/2000/svg">
<g filter="url(#filter0_dddi_113_133)">
<rect x="58.7051" y="29.3535" width="212.809" height="212.809" rx="55.0368" fill="#F9A94E"/>
</g>
<mask id="mask0_113_133" style="mask-type:alpha" maskUnits="userSpaceOnUse" x="58" y="29" width="214" height="214">
<rect x="58.7051" y="29.3535" width="212.809" height="212.809" rx="55.0368" fill="#F9A94E"/>
</mask>
<g mask="url(#mask0_113_133)">
<path d="M85.8069 88.1621C91.4668 88.1621 96.1194 94.3837 96.1194 102.096V121.927C96.1194 129.574 91.4668 135.861 85.8069 135.861H69.0191C66.2851 135.861 63.647 134.37 61.6804 131.778C59.7618 129.121 58.6586 125.621 58.7066 121.927V102.096C58.6586 98.4017 59.7618 94.8373 61.6804 92.245C63.647 89.6527 66.2371 88.1621 69.0191 88.1621H85.8069ZM82.6412 116.872V107.151C82.6412 104.623 81.1063 102.549 79.2356 102.549H75.5423C73.6717 102.549 72.1368 104.623 72.1368 107.151V116.872C72.1368 119.399 73.6717 121.473 75.5423 121.473H79.2356C81.1063 121.473 82.6412 119.399 82.6412 116.872Z" fill="#FFF1E8"/>
<path d="M122.853 89.4583H136.283V134.889H123.093L113.787 112.659V134.889H99.9734V89.4583H114.747L122.853 105.984V89.4583Z" fill="#FFF1E8"/>
<path d="M153.114 117.455H175.705V134.953H140.163V89.4583H153.114V117.455Z" fill="#FFF1E8"/>
<path d="M191.104 134.889H178.057V89.4583H191.104V134.889Z" fill="#FFF1E8"/>
<path d="M217.846 89.4583H231.276V134.889H218.086L208.781 112.659V134.889H194.967V89.4583H209.74L217.846 105.984V89.4583Z" fill="#FFF1E8"/>
<path d="M271.514 105.012H246.62V108.706H261.537V115.705H246.62V119.399H271.514V134.953H235.156V89.4583H271.514V105.012Z" fill="#FFF1E8"/>
<path d="M96.4704 139.529C102.058 139.529 106.652 145.272 106.652 152.391V170.697C106.652 177.756 102.058 183.559 96.4704 183.559H79.8959C77.1966 183.559 74.592 182.183 72.6504 179.79C70.7562 177.337 69.667 174.107 69.7144 170.697V152.391C69.667 148.981 70.7562 145.691 72.6504 143.298C74.592 140.905 77.1492 139.529 79.8959 139.529H96.4704ZM93.3449 166.031V157.057C93.3449 154.724 91.8296 152.81 89.9827 152.81H86.3363C84.4894 152.81 82.974 154.724 82.974 157.057V166.031C82.974 168.364 84.4894 170.278 86.3363 170.278H89.9827C91.8296 170.278 93.3449 168.364 93.3449 166.031Z" fill="#FFF1E8"/>
<path d="M138.492 162.621C145.406 165.074 144.979 182.602 144.979 182.602H131.104V168.483C131.104 165.732 128.121 166.031 128.121 166.031H122.201V182.602H110.457V140.786H131.909C138.397 140.786 144.648 144.016 144.648 151.913C144.648 159.809 138.492 162.621 138.492 162.621ZM131.294 157.895C131.767 157.356 131.909 156.459 131.672 155.681C131.388 154.964 130.82 154.485 130.204 154.485H122.201V158.493H130.204C130.583 158.493 131.01 158.254 131.294 157.895Z" fill="#FFF1E8"/>
<path d="M173.584 140.786C176.189 140.786 178.746 142.102 180.593 144.435C182.44 146.768 183.482 149.938 183.482 153.288V170.158C183.482 173.449 182.44 176.619 180.593 179.012C178.746 181.345 176.189 182.661 173.584 182.661H147.87V140.786H173.584ZM170.696 166.988V156.399C170.696 155.322 169.985 154.485 169.18 154.485H158.383V168.902H169.18C170.033 168.902 170.696 168.065 170.696 166.988Z" fill="#FFF1E8"/>
<path d="M222.659 155.083H198.081V158.493H212.809V164.954H198.081V168.364H222.659V182.721H186.763V140.726H222.659V155.083Z" fill="#FFF1E8"/>
<path d="M254.014 162.621C260.928 165.074 260.502 182.602 260.502 182.602H246.627V168.483C246.627 165.732 243.643 166.031 243.643 166.031H237.724V182.602H225.979V140.786H247.432C253.919 140.786 260.17 144.016 260.17 151.913C260.17 159.809 254.014 162.621 254.014 162.621ZM246.816 157.895C247.29 157.356 247.432 156.459 247.195 155.681C246.911 154.964 246.342 154.485 245.727 154.485H237.724V158.493H245.727C246.106 158.493 246.532 158.254 246.816 157.895Z" fill="#FFF1E8"/>
</g>
<g filter="url(#filter1_i_113_133)">
<rect x="58.7051" y="29.3535" width="212.809" height="212.809" rx="55.0368" fill="#F9A94E" fill-opacity="0.15"/>
</g>
<defs>
<filter id="filter0_dddi_113_133" x="-0.000808716" y="0.000572205" width="330.22" height="330.22" filterUnits="userSpaceOnUse" color-interpolation-filters="sRGB">
<feFlood flood-opacity="0" result="BackgroundImageFix"/>
<feColorMatrix in="SourceAlpha" type="matrix" values="0 0 0 0 0 0 0 0 0 0 0 0 0 0 0 0 0 0 127 0" result="hardAlpha"/>
<feOffset dy="29.3529"/>
<feGaussianBlur stdDeviation="29.3529"/>
<feColorMatrix type="matrix" values="0 0 0 0 0 0 0 0 0 0 0 0 0 0 0 0 0 0 0.08 0"/>
<feBlend mode="normal" in2="BackgroundImageFix" result="effect1_dropShadow_113_133"/>
<feColorMatrix in="SourceAlpha" type="matrix" values="0 0 0 0 0 0 0 0 0 0 0 0 0 0 0 0 0 0 127 0" result="hardAlpha"/>
<feOffset/>
<feGaussianBlur stdDeviation="7.33824"/>
<feColorMatrix type="matrix" values="0 0 0 0 0 0 0 0 0 0 0 0 0 0 0 0 0 0 0.04 0"/>
<feBlend mode="normal" in2="effect1_dropShadow_113_133" result="effect2_dropShadow_113_133"/>
<feColorMatrix in="SourceAlpha" type="matrix" values="0 0 0 0 0 0 0 0 0 0 0 0 0 0 0 0 0 0 127 0" result="hardAlpha"/>
<feOffset dy="14.6765"/>
<feGaussianBlur stdDeviation="7.33824"/>
<feComposite in2="hardAlpha" operator="out"/>
<feColorMatrix type="matrix" values="0 0 0 0 0 0 0 0 0 0 0 0 0 0 0 0 0 0 0.25 0"/>
<feBlend mode="normal" in2="effect2_dropShadow_113_133" result="effect3_dropShadow_113_133"/>
<feBlend mode="normal" in="SourceGraphic" in2="effect3_dropShadow_113_133" result="shape"/>
<feColorMatrix in="SourceAlpha" type="matrix" values="0 0 0 0 0 0 0 0 0 0 0 0 0 0 0 0 0 0 127 0" result="hardAlpha"/>
<feOffset/>
<feGaussianBlur stdDeviation="7.33824"/>
<feComposite in2="hardAlpha" operator="arithmetic" k2="-1" k3="1"/>
<feColorMatrix type="matrix" values="0 0 0 0 0 0 0 0 0 0 0 0 0 0 0 0 0 0 0.25 0"/>
<feBlend mode="normal" in2="shape" result="effect4_innerShadow_113_133"/>
</filter>
<filter id="filter1_i_113_133" x="58.7051" y="29.3535" width="212.809" height="212.809" filterUnits="userSpaceOnUse" color-interpolation-filters="sRGB">
<feFlood flood-opacity="0" result="BackgroundImageFix"/>
<feBlend mode="normal" in="SourceGraphic" in2="BackgroundImageFix" result="shape"/>
<feColorMatrix in="SourceAlpha" type="matrix" values="0 0 0 0 0 0 0 0 0 0 0 0 0 0 0 0 0 0 127 0" result="hardAlpha"/>
<feOffset/>
<feGaussianBlur stdDeviation="7.33824"/>
<feComposite in2="hardAlpha" operator="arithmetic" k2="-1" k3="1"/>
<feColorMatrix type="matrix" values="0 0 0 0 0 0 0 0 0 0 0 0 0 0 0 0 0 0 0.25 0"/>
<feBlend mode="normal" in2="shape" result="effect1_innerShadow_113_133"/>
</filter>
</defs>
</svg>
